<?xml version="1.0" encoding="utf-8"?>
<!-- Generated by IcoMoon.io -->
<!DOCTYPE svg PUBLIC "-//W3C//DTD SVG 1.1//EN" "http://www.w3.org/Graphics/SVG/1.1/DTD/svg11.dtd">

<svg version="1.1" xmlns="http://www.w3.org/2000/svg" xmlns:xlink="http://www.w3.org/1999/xlink" width="638" height="32" viewBox="0 0 638 32">
<defs>
<g id="icon-user">
	<path class="path1" d="M25.143 25.089q0 2.143-1.304 3.384t-3.464 1.241h-15.607q-2.161 0-3.464-1.241t-1.304-3.384q0-0.946 0.063-1.848t0.25-1.946 0.473-1.938 0.768-1.741 1.107-1.446 1.527-0.955 1.991-0.357q0.161 0 0.75 0.384t1.33 0.857 1.929 0.857 2.384 0.384 2.384-0.384 1.929-0.857 1.33-0.857 0.75-0.384q1.089 0 1.991 0.357t1.527 0.955 1.107 1.446 0.768 1.741 0.473 1.938 0.25 1.946 0.063 1.848zM19.429 9.143q0 2.839-2.009 4.848t-4.848 2.009-4.848-2.009-2.009-4.848 2.009-4.848 4.848-2.009 4.848 2.009 2.009 4.848z"></path>
</g>
<g id="icon-font">
	<path class="path1" d="M12.946 9.982l-3.036 8.036q1.304 0.018 2.741 0.036t2.125 0.027 0.938 0.009l0.518-0.036q-0.571-1.696-1.643-4.304-0.946-2.357-1.643-3.768zM0.375 29.714h-0.375l0.036-1.411q0.393-0.125 1.429-0.321 1.589-0.286 1.964-0.554 0.357-0.286 0.857-1.214l4.232-11 5-12.929h2.286l0.196 0.375 3.661 8.571q1.839 4.321 2.214 5.304 0.696 1.821 1.714 4.196 0.464 1.036 1.161 2.929 0.429 1.196 1.161 2.661 0.393 0.875 0.625 1.018 0.393 0.339 1.232 0.411 0.839 0.107 1.839 0.482 0.107 0.696 0.107 1.018 0 0.25-0.018 0.464-1.429 0-3.429-0.143-1.661-0.143-3.375-0.143-1.411 0-2.411 0.036l-3.571 0.196-1.036 0.036q0-0.804 0.071-1.393l2.339-0.5q1-0.232 1.214-0.411 0.214-0.214 0.214-0.482t-0.107-0.571l-0.839-2.036-1.643-4.071-8.036-0.036q-0.518 1.161-1.857 4.893-0.411 1.143-0.411 1.5 0 0.554 0.304 0.768 0.464 0.375 1.839 0.571 0.054 0 0.241 0.036t0.536 0.089 0.723 0.107q0.018 0.5 0.018 1.036 0 0.304-0.036 0.482-1.179 0-6.232-0.357l-0.857 0.143q-1.446 0.25-2.982 0.25z"></path>
</g>
<g id="icon-info-circle">
	<path class="path1" d="M18.286 24.571v-2.857q0-0.25-0.161-0.411t-0.411-0.161h-1.714v-9.143q0-0.25-0.161-0.411t-0.411-0.161h-5.714q-0.25 0-0.411 0.161t-0.161 0.411v2.857q0 0.25 0.161 0.411t0.411 0.161h1.714v5.714h-1.714q-0.25 0-0.411 0.161t-0.161 0.411v2.857q0 0.25 0.161 0.411t0.411 0.161h8q0.25 0 0.411-0.161t0.161-0.411zM16 8.571v-2.857q0-0.25-0.161-0.411t-0.411-0.161h-3.429q-0.25 0-0.411 0.161t-0.161 0.411v2.857q0 0.25 0.161 0.411t0.411 0.161h3.429q0.25 0 0.411-0.161t0.161-0.411zM27.429 16q0 3.732-1.839 6.884t-4.991 4.991-6.884 1.839-6.884-1.839-4.991-4.991-1.839-6.884 1.839-6.884 4.991-4.991 6.884-1.839 6.884 1.839 4.991 4.991 1.839 6.884z"></path>
</g>
<g id="icon-eye">
	<path class="path1" d="M29.714 17.143q-2.714-4.214-6.804-6.304 1.089 1.857 1.089 4.018 0 3.304-2.348 5.652t-5.652 2.348-5.652-2.348-2.348-5.652q0-2.161 1.089-4.018-4.089 2.089-6.804 6.304 2.375 3.661 5.955 5.83t7.759 2.17 7.759-2.17 5.955-5.83zM16.857 10.286q0-0.357-0.25-0.607t-0.607-0.25q-2.232 0-3.83 1.598t-1.598 3.83q0 0.357 0.25 0.607t0.607 0.25 0.607-0.25 0.25-0.607q0-1.536 1.089-2.625t2.625-1.089q0.357 0 0.607-0.25t0.25-0.607zM32 17.143q0 0.607-0.357 1.232-2.5 4.107-6.723 6.58t-8.92 2.473-8.92-2.482-6.723-6.571q-0.357-0.625-0.357-1.232t0.357-1.232q2.5-4.089 6.723-6.571t8.92-2.482 8.92 2.482 6.723 6.571q0.357 0.625 0.357 1.232z"></path>
</g>
<g id="icon-group">
	<path class="path1" d="M10.589 16q-2.893 0.089-4.732 2.286h-2.393q-1.464 0-2.464-0.723t-1-2.116q0-6.304 2.214-6.304 0.107 0 0.777 0.375t1.741 0.759 2.125 0.384q1.196 0 2.375-0.411-0.089 0.661-0.089 1.179 0 2.482 1.446 4.571zM29.714 27.375q0 2.143-1.304 3.384t-3.464 1.241h-15.607q-2.161 0-3.464-1.241t-1.304-3.384q0-0.946 0.063-1.848t0.25-1.946 0.473-1.938 0.768-1.741 1.107-1.446 1.527-0.955 1.991-0.357q0.179 0 0.768 0.384t1.304 0.857 1.911 0.857 2.411 0.384 2.411-0.384 1.911-0.857 1.304-0.857 0.768-0.384q1.089 0 1.991 0.357t1.527 0.955 1.107 1.446 0.768 1.741 0.473 1.938 0.25 1.946 0.063 1.848zM11.429 4.571q0 1.893-1.339 3.232t-3.232 1.339-3.232-1.339-1.339-3.232 1.339-3.232 3.232-1.339 3.232 1.339 1.339 3.232zM24 11.429q0 2.839-2.009 4.848t-4.848 2.009-4.848-2.009-2.009-4.848 2.009-4.848 4.848-2.009 4.848 2.009 2.009 4.848zM34.286 15.446q0 1.393-1 2.116t-2.464 0.723h-2.393q-1.839-2.196-4.732-2.286 1.446-2.089 1.446-4.571 0-0.518-0.089-1.179 1.179 0.411 2.375 0.411 1.054 0 2.125-0.384t1.741-0.759 0.777-0.375q2.214 0 2.214 6.304zM32 4.571q0 1.893-1.339 3.232t-3.232 1.339-3.232-1.339-1.339-3.232 1.339-3.232 3.232-1.339 3.232 1.339 1.339 3.232z"></path>
</g>
<g id="icon-bars">
	<path class="path1" d="M27.429 24v2.286q0 0.464-0.339 0.804t-0.804 0.339h-25.143q-0.464 0-0.804-0.339t-0.339-0.804v-2.286q0-0.464 0.339-0.804t0.804-0.339h25.143q0.464 0 0.804 0.339t0.339 0.804zM27.429 14.857v2.286q0 0.464-0.339 0.804t-0.804 0.339h-25.143q-0.464 0-0.804-0.339t-0.339-0.804v-2.286q0-0.464 0.339-0.804t0.804-0.339h25.143q0.464 0 0.804 0.339t0.339 0.804zM27.429 5.714v2.286q0 0.464-0.339 0.804t-0.804 0.339h-25.143q-0.464 0-0.804-0.339t-0.339-0.804v-2.286q0-0.464 0.339-0.804t0.804-0.339h25.143q0.464 0 0.804 0.339t0.339 0.804z"></path>
</g>
<g id="icon-microphone">
	<path class="path1" d="M20.571 12.571v2.286q0 3.946-2.634 6.866t-6.509 3.348v2.357h4.571q0.464 0 0.804 0.339t0.339 0.804-0.339 0.804-0.804 0.339h-11.429q-0.464 0-0.804-0.339t-0.339-0.804 0.339-0.804 0.804-0.339h4.571v-2.357q-3.875-0.429-6.509-3.348t-2.634-6.866v-2.286q0-0.464 0.339-0.804t0.804-0.339 0.804 0.339 0.339 0.804v2.286q0 3.304 2.348 5.652t5.652 2.348 5.652-2.348 2.348-5.652v-2.286q0-0.464 0.339-0.804t0.804-0.339 0.804 0.339 0.339 0.804zM16 5.714v9.143q0 2.357-1.679 4.036t-4.036 1.679-4.036-1.679-1.679-4.036v-9.143q0-2.357 1.679-4.036t4.036-1.679 4.036 1.679 1.679 4.036z"></path>
</g>
<g id="icon-quill">
	<path class="path1" d="M12 18.333c0 0 6.373-3.824 9.961-2.313 0.744-1.133 1.477-2.354 2.194-3.601-3.51-0.86-8.155-0.086-8.155-0.086s5.944-3.566 9.583-2.45c0.73-1.316 1.439-2.614 2.124-3.822-2.899-0.196-5.707 0.272-5.707 0.272s3.723-2.234 7.081-2.612c1.056-1.714 2.037-3.059 2.919-3.721-17.531 0-28 20-32 32h2l6-10c0 0 2 2 8 0 1.421-0.474 2.842-1.789 4.237-3.56-3.519-0.892-8.237-0.106-8.237-0.106z"></path>
</g>
<g id="icon-podcast">
	<path class="path1" d="M32 16c0-8.837-7.163-16-16-16s-16 7.163-16 16c0 6.877 4.339 12.739 10.428 15.002l-0.428 0.998h12l-0.428-0.998c6.089-2.263 10.428-8.125 10.428-15.002zM15.212 19.838c-0.713-0.306-1.212-1.014-1.212-1.838 0-1.105 0.895-2 2-2 1.105 0 2 0.895 2 2 0 0.825-0.499 1.533-1.212 1.839l-0.788-1.839-0.788 1.838zM16.821 19.915c1.815-0.379 3.179-1.988 3.179-3.915 0-2.209-1.791-4-4-4-2.209 0-4 1.791-4 4 0 1.928 1.364 3.535 3.18 3.913l-2.332 5.441c-2.851-1.223-4.848-4.056-4.848-7.355 0-4.418 3.582-8.375 8-8.375s8 3.957 8 8.375c0 3.299-1.997 6.131-4.848 7.355l-2.331-5.439zM21.514 30.866l-2.31-5.39c3.951-1.336 6.796-5.073 6.796-9.476 0-5.523-4.477-10-10-10-5.523 0-10 4.477-10 10 0 4.402 2.845 8.14 6.796 9.476l-2.31 5.39c-4.987-2.14-8.481-7.095-8.481-12.866 0-7.729 6.266-14.37 13.995-14.37 7.729 0 13.995 6.641 13.995 14.37 0 5.771-3.494 10.726-8.481 12.866z"></path>
</g>
<g id="icon-bars2">
	<path class="path1" d="M9 12h-6c-0.55 0-1 0.45-1 1v18c0 0.55 0.45 1 1 1h6c0.55 0 1-0.45 1-1v-18c0-0.55-0.45-1-1-1zM9 30h-6v-8h6v8zM19 8h-6c-0.55 0-1 0.45-1 1v22c0 0.55 0.45 1 1 1h6c0.55 0 1-0.45 1-1v-22c0-0.55-0.45-1-1-1zM19 30h-6v-10h6v10zM29 4h-6c-0.55 0-1 0.45-1 1v26c0 0.55 0.45 1 1 1h6c0.55 0 1-0.45 1-1v-26c0-0.55-0.45-1-1-1zM29 30h-6v-12h6v12z"></path>
</g>
<g id="icon-tree">
	<path class="path1" d="M30.5 24h-0.5v-6.5c0-1.93-1.57-3.5-3.5-3.5h-8.5v-4h0.5c0.825 0 1.5-0.675 1.5-1.5v-5c0-0.825-0.675-1.5-1.5-1.5h-5c-0.825 0-1.5 0.675-1.5 1.5v5c0 0.825 0.675 1.5 1.5 1.5h0.5v4h-8.5c-1.93 0-3.5 1.57-3.5 3.5v6.5h-0.5c-0.825 0-1.5 0.675-1.5 1.5v5c0 0.825 0.675 1.5 1.5 1.5h5c0.825 0 1.5-0.675 1.5-1.5v-5c0-0.825-0.675-1.5-1.5-1.5h-0.5v-6h8v6h-0.5c-0.825 0-1.5 0.675-1.5 1.5v5c0 0.825 0.675 1.5 1.5 1.5h5c0.825 0 1.5-0.675 1.5-1.5v-5c0-0.825-0.675-1.5-1.5-1.5h-0.5v-6h8v6h-0.5c-0.825 0-1.5 0.675-1.5 1.5v5c0 0.825 0.675 1.5 1.5 1.5h5c0.825 0 1.5-0.675 1.5-1.5v-5c0-0.825-0.675-1.5-1.5-1.5zM6 30h-4v-4h4v4zM18 30h-4v-4h4v4zM14 8v-4h4v4h-4zM30 30h-4v-4h4v4z"></path>
</g>
<g id="icon-eye2">
	<path class="path1" d="M16 10c-6.543 0-12.351 3.142-16 8 3.649 4.858 9.457 8 16 8 6.543 0 12.351-3.142 16-8-3.649-4.858-9.457-8-16-8zM14 14c1.105 0 2 0.895 2 2s-0.895 2-2 2-2-0.895-2-2 0.895-2 2-2zM24.175 22.041c-1.239 0.633-2.552 1.121-3.901 1.449-1.39 0.339-2.828 0.51-4.274 0.51-1.446 0-2.884-0.172-4.274-0.51-1.35-0.329-2.662-0.816-3.901-1.449-1.969-1.006-3.757-2.388-5.239-4.041 1.482-1.653 3.269-3.034 5.239-4.041 1.011-0.516 2.070-0.936 3.159-1.251-0.621 0.945-0.983 2.076-0.983 3.292 0 3.314 2.686 6 6 6 3.314 0 6-2.686 6-6 0-1.216-0.362-2.347-0.983-3.292 1.089 0.316 2.148 0.735 3.159 1.251 1.969 1.006 3.757 2.388 5.239 4.041-1.482 1.653-3.269 3.034-5.239 4.041zM26.904 7.616c-3.398-1.736-7.066-2.616-10.904-2.616-3.838 0-7.506 0.88-10.904 2.616-1.837 0.938-3.554 2.122-5.096 3.502v3.413c1.729-1.83 3.772-3.367 6.006-4.509 3.113-1.591 6.476-2.397 9.994-2.397s6.881 0.807 9.994 2.397c2.234 1.142 4.277 2.679 6.006 4.509v-3.413c-1.542-1.38-3.26-2.564-5.096-3.502z"></path>
</g>
<g id="icon-enter">
	<path class="path1" d="M12 16h-10v-4h10v-4l6 6-6 6zM32 0v26l-12 6v-6h-12v-8h2v6h10v-18l8-4h-18v8h-2v-10z"></path>
</g>
<g id="icon-exit">
	<path class="path1" d="M24 20v-4h-10v-4h10v-4l6 6zM22 18v8h-10v6l-12-6v-26h22v10h-2v-8h-16l8 4v18h8v-6z"></path>
</g>
</defs>

<g fill="#000000">
	<use xlink:href="#icon-user" transform="translate(0 0)"></use>
	<use xlink:href="#icon-font" transform="translate(41 0)"></use>
	<use xlink:href="#icon-info-circle" transform="translate(87 0)"></use>
	<use xlink:href="#icon-eye" transform="translate(135 0)"></use>
	<use xlink:href="#icon-group" transform="translate(183 0)"></use>
	<use xlink:href="#icon-bars" transform="translate(233 0)"></use>
	<use xlink:href="#icon-microphone" transform="translate(281 0)"></use>
	<use xlink:href="#icon-quill" transform="translate(318 0)"></use>
	<use xlink:href="#icon-podcast" transform="translate(366 0)"></use>
	<use xlink:href="#icon-bars2" transform="translate(414 0)"></use>
	<use xlink:href="#icon-tree" transform="translate(462 0)"></use>
	<use xlink:href="#icon-eye2" transform="translate(510 0)"></use>
	<use xlink:href="#icon-enter" transform="translate(558 0)"></use>
	<use xlink:href="#icon-exit" transform="translate(606 0)"></use>
</g>

</svg>
